<svg width="16" height="14" viewBox="0 0 16 14" fill="none" xmlns="http://www.w3.org/2000/svg">
<path d="M15.7443 6.3785L9.9661 0.600204C9.80116 0.435262 9.58132 0.344727 9.34692 0.344727C9.11225 0.344727 8.89255 0.435392 8.7276 0.600204L8.20299 1.12495C8.03818 1.28963 7.94738 1.5096 7.94738 1.74413C7.94738 1.97853 8.03818 2.20591 8.20299 2.3706L11.5739 5.74891H0.864383C0.381525 5.74891 0 6.12692 0 6.60991V7.35176C0 7.83475 0.381525 8.25087 0.864383 8.25087H11.6121L8.20312 11.648C8.03831 11.813 7.94751 12.027 7.94751 12.2615C7.94751 12.4958 8.03831 12.7129 8.20312 12.8777L8.72773 13.4007C8.89268 13.5657 9.11238 13.6556 9.34705 13.6556C9.58145 13.6556 9.80129 13.5645 9.96623 13.3996L15.7444 7.62141C15.9097 7.45595 16.0007 7.23508 16 7.00028C16.0005 6.76471 15.9097 6.5437 15.7443 6.3785Z" fill="#000A2D"/>
</svg>
